<?xml version="1.0" encoding="UTF-8"?>
<svg version="1.1" xmlns="http://www.w3.org/2000/svg" width="688" height="384">
<path d="M0 0 C1.72818004 6.38300979 2.80018619 12.73761887 3.7265625 19.28125 C3.95537613 20.86238586 3.95537613 20.86238586 4.18881226 22.47546387 C4.67140155 25.81643327 5.14828614 29.15818772 5.625 32.5 C5.95274747 34.77609606 6.28086859 37.05213835 6.609375 39.328125 C7.41057435 44.88480182 8.20710142 50.44213298 9 56 C12.87320257 56 14.83690899 54.66774927 18.2421875 52.82421875 C18.84757355 52.4983931 19.45295959 52.17256744 20.07669067 51.83686829 C22.01266098 50.79288024 23.9437492 49.74018801 25.875 48.6875 C27.16767444 47.98968889 28.46064016 47.29241709 29.75390625 46.59570312 C36.32301063 43.08568785 36.32301063 43.08568785 42.71923828 39.27661133 C45 38 45 38 48 38 C49.28861421 45.57941334 50.56956129 53.16009385 51.84521484 60.74169922 C52.27997716 63.32012179 52.71648647 65.89825043 53.15478516 68.47607422 C53.78488567 72.18380856 54.40867289 75.89255843 55.03125 79.6015625 C55.32654602 81.32688705 55.32654602 81.32688705 55.62780762 83.08706665 C55.80799438 84.16773407 55.98818115 85.24840149 56.17382812 86.36181641 C56.41365417 87.7807872 56.41365417 87.7807872 56.6583252 89.22842407 C57.02198247 92.178316 57.05790837 95.03075852 57 98 C58.17095215 97.72736328 59.3419043 97.45472656 60.54833984 97.17382812 C64.88262632 96.16526986 69.2175759 95.15958801 73.55273438 94.15478516 C75.43084712 93.71905 77.30877781 93.28252934 79.18652344 92.84521484 C81.88168909 92.21767099 84.57749154 91.5929319 87.2734375 90.96875 C88.11619232 90.77188599 88.95894714 90.57502197 89.82723999 90.37219238 C95.77225659 89 95.77225659 89 98 89 C100.00366112 96.24304827 101.08166185 103.5545357 102.1640625 110.984375 C102.36271901 112.3310331 102.56164748 113.67765111 102.76083374 115.02423096 C103.17512708 117.83105457 103.58665753 120.63826464 103.99609375 123.44580078 C104.52038196 127.0398256 105.05084526 130.63290604 105.58326149 134.22573471 C105.99379105 136.99979986 106.40146604 139.77427853 106.80823898 142.54889679 C107.09712815 144.51667033 107.38810172 146.4841375 107.67910767 148.45159912 C107.85283905 149.64674133 108.02657043 150.84188354 108.20556641 152.07324219 C108.35941803 153.12388855 108.51326965 154.17453491 108.67178345 155.25701904 C109 158 109 158 109 162 C104.58965421 162.43214646 100.17885222 162.85919878 95.76757812 163.28173828 C94.27005019 163.42588018 92.77265055 163.57136199 91.27539062 163.71826172 C89.11100907 163.93037111 86.94619679 164.13749923 84.78125 164.34375 C83.48251953 164.46943359 82.18378906 164.59511719 80.84570312 164.72460938 C76.87000298 165.00930908 72.98360433 165.04650122 69 165 C69.11275269 165.74058151 69.22550537 166.48116302 69.3416748 167.2441864 C70.40492707 174.23224381 71.46462606 181.22082871 72.52036285 188.21002483 C73.0632181 191.80299531 73.60743264 195.39574877 74.15478516 198.98803711 C74.68320958 202.45643901 75.20802215 205.9253701 75.73036194 209.39469337 C76.02701735 211.35869653 76.3273858 213.32213768 76.62780762 215.28556824 C76.80799438 216.4864357 76.98818115 217.68730316 77.17382812 218.92456055 C77.33371216 219.97935104 77.49359619 221.03414154 77.6583252 222.12089539 C77.97416007 224.78226117 78.06517851 227.32361711 78 230 C72.3581721 229.88180475 66.71652232 229.75755997 61.07495117 229.62768555 C59.15539175 229.5843506 57.23579415 229.54267448 55.31616211 229.50268555 C52.55831386 229.44494822 49.80065759 229.38126365 47.04296875 229.31640625 C46.18350143 229.29969376 45.32403412 229.28298126 44.43852234 229.26576233 C43.63791885 229.24581711 42.83731537 229.22587189 42.01245117 229.20532227 C41.3085173 229.18977798 40.60458344 229.1742337 39.87931824 229.15821838 C38 229 38 229 35 228 C32.94953363 217.23088395 31.26516389 206.41079032 29.65658569 195.56854248 C29.42767569 194.02608498 29.19755777 192.48380624 28.96621704 190.94171143 C28.63630008 188.73774414 28.3115143 186.53308134 27.98828125 184.328125 C27.79790283 183.0380957 27.60752441 181.74806641 27.41137695 180.41894531 C27.06746275 177.56068154 26.91312651 174.87197581 27 172 C21.90893943 172.97484354 16.81863699 173.95352179 11.72900391 174.93579102 C9.99678614 175.26953445 8.26436451 175.60222152 6.53173828 175.93383789 C4.04405471 176.41015738 1.55712454 176.8902476 -0.9296875 177.37109375 C-1.70682098 177.51904892 -2.48395447 177.66700409 -3.28463745 177.81944275 C-7.25568721 178.55159326 -7.25568721 178.55159326 -11 180 C-8.36 196.17 -5.72 212.34 -3 229 C-16.86 229 -30.72 229 -45 229 C-47.05741271 222.82776188 -48.20321786 216.88082559 -49.28710938 210.48681641 C-49.62428393 208.50421052 -49.97179836 206.52360898 -50.3203125 204.54296875 C-50.536875 203.28097656 -50.7534375 202.01898438 -50.9765625 200.71875 C-51.27167725 199.00075195 -51.27167725 199.00075195 -51.57275391 197.24804688 C-51.9840826 194.12100863 -52.07808061 191.14945003 -52 188 C-52.68320312 188.17015625 -53.36640625 188.3403125 -54.0703125 188.515625 C-61.52874194 190.30870011 -69.01845103 191.80324811 -76.5625 193.1875 C-77.52623535 193.36635742 -78.4899707 193.54521484 -79.48291016 193.72949219 C-80.39733887 193.89481445 -81.31176758 194.06013672 -82.25390625 194.23046875 C-83.07189697 194.37895264 -83.8898877 194.52743652 -84.73266602 194.68041992 C-87 195 -87 195 -91 195 C-90.81824219 195.81678223 -90.63648438 196.63356445 -90.44921875 197.47509766 C-89.77328847 200.52674955 -89.1030372 203.57957956 -88.43652344 206.63330078 C-88.00628328 208.59633166 -87.56959485 210.55794567 -87.1328125 212.51953125 C-86.72675781 214.38544922 -86.72675781 214.38544922 -86.3125 216.2890625 C-86.06113281 217.43068848 -85.80976563 218.57231445 -85.55078125 219.74853516 C-85 223 -85 223 -85 229 C-98.86 228.34 -112.72 227.68 -127 227 C-131.5 210.125 -131.5 210.125 -133 203 C-133.71430176 203.03029297 -134.42860352 203.06058594 -135.16455078 203.09179688 C-161.38396283 204.19008061 -161.38396283 204.19008061 -173 204 C-178 189.6 -178 189.6 -178 183 C-172.62537803 181.85811111 -167.25020948 180.71884488 -161.87451172 179.58203125 C-160.04493092 179.19473586 -158.21550297 178.80671769 -156.38623047 178.41796875 C-153.7604877 177.86008736 -151.13421051 177.30478729 -148.5078125 176.75 C-147.68693146 176.57500977 -146.86605042 176.40001953 -146.02029419 176.21972656 C-140.22774341 175 -140.22774341 175 -138 175 C-138.26554687 174.01 -138.53109375 173.02 -138.8046875 172 C-139.5321399 169.2847736 -140.255716 166.56854987 -140.9765625 163.8515625 C-141.54857175 161.69888645 -142.12378397 159.54703227 -142.7109375 157.3984375 C-143.66392107 153.82129629 -144.07554854 150.68928697 -144 147 C-142.73724243 146.3498291 -142.73724243 146.3498291 -141.44897461 145.68652344 C-138.29680614 144.06259359 -135.14536259 142.43727326 -131.99438477 140.81103516 C-130.63594451 140.1102896 -129.27722573 139.41008368 -127.91821289 138.71044922 C-125.95383667 137.69904435 -123.99050295 136.68563971 -122.02734375 135.671875 C-121.42913315 135.36441345 -120.83092255 135.0569519 -120.21458435 134.74017334 C-117.15602629 133.15831161 -114.15344143 131.51476966 -111.18579102 129.77050781 C-108 128 -108 128 -106 128 C-106.28049194 126.62279785 -106.28049194 126.62279785 -106.56665039 125.21777344 C-107.25748115 121.8048665 -107.94053817 118.39059259 -108.6184082 114.97509766 C-108.91316408 113.49823946 -109.21098944 112.02199038 -109.51196289 110.54638672 C-109.94448739 108.42308462 -110.36586159 106.29782398 -110.78515625 104.171875 C-111.17006226 102.2552002 -111.17006226 102.2552002 -111.56274414 100.29980469 C-111.95507104 97.33906191 -112.16906954 95.70131156 -111 93 C-108.98231268 91.01185422 -106.9945456 89.2265623 -104.8125 87.4375 C-104.18899658 86.91518799 -103.56549316 86.39287598 -102.9230957 85.85473633 C-96.90772223 80.84733212 -90.76193968 76.00454682 -84.5703125 71.21777344 C-83.09298738 70.07211148 -81.62431083 68.915322 -80.15625 67.7578125 C-79.3415625 67.11585937 -78.526875 66.47390625 -77.6875 65.8125 C-76.99011719 65.26207031 -76.29273438 64.71164063 -75.57421875 64.14453125 C-74 63 -74 63 -73 63 C-72.68977905 64.66554932 -72.68977905 64.66554932 -72.37329102 66.36474609 C-71.60662973 70.47648217 -70.83602271 74.58747043 -70.06420898 78.69824219 C-69.73044539 80.47896434 -69.39775837 82.25988862 -69.06616211 84.04101562 C-68.58989489 86.59819328 -68.1097859 89.15462375 -67.62890625 91.7109375 C-67.48095108 92.50994476 -67.33299591 93.30895203 -67.18055725 94.13217163 C-66.46202678 98.18237613 -66.46202678 98.18237613 -65 102 C-62.124348 100.18853298 -59.24960281 98.37563143 -56.375 96.5625 C-55.51720947 96.02206055 -54.65941895 95.48162109 -53.77563477 94.92480469 C-49.73183118 92.37320038 -45.6954945 89.81280151 -41.69140625 87.19921875 C-41.05219238 86.782771 -40.41297852 86.36632324 -39.75439453 85.93725586 C-38.56402134 85.15940248 -37.37609147 84.37779415 -36.19091797 83.59204102 C-32.22020903 81 -32.22020903 81 -30 81 C-30.24234375 79.70900391 -30.4846875 78.41800781 -30.734375 77.08789062 C-31.63615776 72.27346844 -32.52845213 67.45732724 -33.41796875 62.640625 C-33.80342364 60.56072075 -34.19141069 58.48128404 -34.58203125 56.40234375 C-35.14477792 53.40485638 -35.69823641 50.40577605 -36.25 47.40625 C-36.42499023 46.48509399 -36.59998047 45.56393799 -36.78027344 44.61486816 C-37.74235297 39.32706033 -38.41516891 34.37559955 -38 29 C-35.90790139 26.75107241 -34.29916534 25.35891313 -31.8125 23.6875 C-30.52153522 22.7513155 -29.23251719 21.81244149 -27.9453125 20.87109375 C-26.95772949 20.16315674 -26.95772949 20.16315674 -25.95019531 19.44091797 C-22.90313682 17.18957355 -20.05124102 14.72751279 -17.1875 12.25 C-2.84603659 0 -2.84603659 0 0 0 Z M7 60 C5.9958606 60.589021 5.9958606 60.589021 4.97143555 61.18994141 C1.87778968 63.00333851 -1.21734523 64.81417961 -4.3125 66.625 C-5.36501953 67.24246094 -6.41753906 67.85992187 -7.50195312 68.49609375 C-14.27098047 72.45337127 -21.09293673 76.28881916 -28 80 C-26.47651735 91.78066309 -24.8141092 103.52995281 -22.875 115.25 C-22.70452148 116.29091797 -22.53404297 117.33183594 -22.35839844 118.40429688 C-22.19629883 119.36916016 -22.03419922 120.33402344 -21.8671875 121.328125 C-21.72394043 122.1830957 -21.58069336 123.03806641 -21.43310547 123.91894531 C-21.08250221 126.04798759 -21.08250221 126.04798759 -20 128 C-15.63044684 127.32467223 -11.76903081 125.78723262 -7.73046875 124.05859375 C-7.04946609 123.77146011 -6.36846344 123.48432648 -5.66682434 123.18849182 C-3.5051638 122.27587966 -1.34632419 121.3567987 0.8125 120.4375 C2.28302128 119.81532525 3.75372259 119.1935758 5.22460938 118.57226562 C8.81850919 117.05309327 12.40989431 115.52811577 16 114 C15.40516136 104.11159361 13.97995816 94.37781886 12.47094727 84.59692383 C12.05871214 81.912837 11.65902593 79.22705947 11.25976562 76.54101562 C10.99815254 74.82800926 10.73580973 73.11511415 10.47265625 71.40234375 C10.3548732 70.60239487 10.23709015 69.80244598 10.11573792 68.97825623 C9.5476423 65.36834368 9.05605628 63.08408442 7 60 Z M56 103 C51.03249452 104.68694134 46.06630669 106.37768596 41.10131836 108.07202148 C39.41092321 108.64827409 37.72016825 109.22347232 36.02905273 109.79760742 C33.60305696 110.62143664 31.17836623 111.44900745 28.75390625 112.27734375 C27.99348526 112.53466782 27.23306427 112.79199188 26.44960022 113.05711365 C22.95329667 114.04701556 22.95329667 114.04701556 20 116 C20.07438138 125.68701204 22.04781503 135.4339251 23.58398438 144.97583008 C24.00408144 147.58787729 24.41657271 150.20104733 24.828125 152.81445312 C25.09330924 154.48184099 25.35891844 156.14916134 25.625 157.81640625 C25.74794434 158.59448135 25.87088867 159.37255646 25.99755859 160.17420959 C26.49016234 163.21796994 27.02302135 166.06906406 28 169 C36.32030614 168.43319371 44.46934093 167.40620701 52.6875 166 C53.76966797 165.82210937 54.85183594 165.64421875 55.96679688 165.4609375 C60.84850031 165.04908269 60.84850031 165.04908269 65 163 C64.91677537 151.88552114 63.01202666 140.72107383 61.47094727 129.73706055 C61.05809581 126.78096517 60.65866641 123.82324086 60.25976562 120.86523438 C59.99820187 118.97905472 59.73586114 117.0929826 59.47265625 115.20703125 C59.3548732 114.32586136 59.23709015 113.44469147 59.11573792 112.53681946 C58.99899216 111.7213414 58.8822464 110.90586334 58.76196289 110.06567383 C58.66283096 109.35067215 58.56369904 108.63567047 58.46156311 107.89900208 C58.038748 105.68708655 58.038748 105.68708655 56 103 Z M-68 106 C-70.37298011 107.08028303 -70.37298011 107.08028303 -73.0234375 108.71875 C-74.04566406 109.32203125 -75.06789063 109.9253125 -76.12109375 110.546875 C-77.19488281 111.19140625 -78.26867187 111.8359375 -79.375 112.5 C-81.46614583 113.73958333 -83.55729167 114.97916667 -85.6484375 116.21875 C-86.68581055 116.8375 -87.72318359 117.45625 -88.79199219 118.09375 C-93.84249482 121.09484015 -98.92060187 124.04810442 -104 127 C-103.44890325 134.54385572 -102.11104653 141.7557699 -100.4375 149.125 C-100.20353516 150.176875 -99.96957031 151.22875 -99.72851562 152.3125 C-99.15750875 154.87620435 -98.58126181 157.43860496 -98 160 C-93.31822436 159.37222565 -89.07261743 158.10586273 -84.66796875 156.453125 C-83.99075272 156.20004578 -83.31353668 155.94696655 -82.61579895 155.68621826 C-81.19517473 155.15153449 -79.77580944 154.6134949 -78.35766602 154.07226562 C-76.18305464 153.24831567 -73.99935048 152.4524518 -71.81445312 151.65625 C-70.43164355 151.1319144 -69.0494579 150.60592977 -67.66796875 150.078125 C-66.68681343 149.72781219 -66.68681343 149.72781219 -65.68583679 149.37042236 C-62.88809384 148.26918087 -61.27936062 147.61779553 -60.01171875 144.81445312 C-59.99622806 141.09410607 -60.49953506 137.54181806 -61.14453125 133.890625 C-61.33930305 132.73950226 -61.33930305 132.73950226 -61.53800964 131.56512451 C-61.81363432 129.95069412 -62.09377984 128.3370298 -62.37817383 126.72412109 C-62.81310182 124.24657178 -63.22872655 121.76630315 -63.64257812 119.28515625 C-63.91291433 117.7159476 -64.18435985 116.14692956 -64.45703125 114.578125 C-64.64311699 113.46102142 -64.64311699 113.46102142 -64.83296204 112.3213501 C-65.15463325 110.53412714 -65.56881333 108.76400576 -66 107 C-66.66 106.67 -67.32 106.34 -68 106 Z M-29.71875 134.02734375 C-30.87836243 134.48990318 -30.87836243 134.48990318 -32.06140137 134.96180725 C-33.69932734 135.6158267 -35.33689034 136.27075579 -36.97412109 136.92651367 C-39.48800355 137.93269841 -42.00368561 138.93428267 -44.51953125 139.93554688 C-46.10688264 140.57003286 -47.6941259 141.20478943 -49.28125 141.83984375 C-50.03853394 142.14091537 -50.79581787 142.441987 -51.5760498 142.75218201 C-55.04381906 143.9533785 -55.04381906 143.9533785 -58 146 C-57.86062739 154.43511721 -56.0698369 162.80515789 -54.5 171.0625 C-54.27441406 172.28388672 -54.04882812 173.50527344 -53.81640625 174.76367188 C-52.9235331 180.54412123 -52.9235331 180.54412123 -51 186 C-46.52026075 185.21155148 -42.04131894 184.41865831 -37.5625 183.625 C-36.30244141 183.40328125 -35.04238281 183.1815625 -33.74414062 182.953125 C-27.12344204 181.77764849 -20.54930082 180.52508202 -14 179 C-14.53562438 168.39228287 -16.20305068 158.12720943 -18.0625 147.6875 C-18.34756865 146.0606455 -18.63207747 144.43369281 -18.91601562 142.80664062 C-19.60424483 138.86993473 -20.29997855 134.93462537 -21 131 C-23.81615354 131 -27.08330082 132.97252971 -29.71875 134.02734375 Z M-109.0703125 165.84375 C-110.26465408 166.27657288 -110.26465408 166.27657288 -111.48312378 166.71813965 C-114.03151154 167.64244058 -116.5782611 168.57116678 -119.125 169.5 C-120.85015452 170.12659372 -122.57541365 170.75289951 -124.30078125 171.37890625 C-128.53528337 172.91539066 -132.76754306 174.45784352 -137 176 C-135.35 183.59 -133.7 191.18 -132 199 C-122.96308066 198.40505382 -114.12573277 197.37882187 -105.1875 195.9375 C-104.00607422 195.75123047 -102.82464844 195.56496094 -101.60742188 195.37304688 C-98.73752759 194.91990567 -95.86845049 194.46217672 -93 194 C-93.63189782 186.97649204 -94.94219189 180.29544275 -96.5625 173.4375 C-96.79646484 172.42880859 -97.03042969 171.42011719 -97.27148438 170.38085938 C-97.84308715 167.91946783 -98.4193354 165.45926653 -99 163 C-102.52502394 163 -105.78782849 164.6426638 -109.0703125 165.84375 Z " fill="#FFFFFF" transform="translate(339,8)"/>
<path d="M0 0 C5.61 0 11.22 0 17 0 C18.15356383 3.83115716 19.29804329 7.66464667 20.4375 11.5 C20.92573242 13.11648438 20.92573242 13.11648438 21.42382812 14.765625 C23.12935835 20.53277875 24.48335642 26.00402376 25 32 C25.66 32 26.32 32 27 32 C27.09474609 31.17435547 27.09474609 31.17435547 27.19140625 30.33203125 C28.7353387 19.8495425 32.5378529 9.96987281 36 0 C41.61 0 47.22 0 53 0 C53.42920465 6.88667997 53.85639949 13.77348057 54.28173828 20.66040039 C54.42669426 23.00288252 54.57219786 25.34533083 54.71826172 27.68774414 C54.92820156 31.05606469 55.13616706 34.42450223 55.34375 37.79296875 C55.40937134 38.83897751 55.47499268 39.88498627 55.54260254 40.96269226 C55.60266479 41.94333145 55.66272705 42.92397064 55.72460938 43.93432617 C55.77790405 44.79370285 55.83119873 45.65307953 55.8861084 46.53849792 C56.00107792 49.02329666 56 51.51254292 56 54 C51.71 54 47.42 54 43 54 C42.01 36.675 42.01 36.675 41 19 C37.75054669 29.81426364 37.75054669 29.81426364 34.50805664 40.63061523 C34.10067648 41.98168448 33.69305942 43.33268232 33.28515625 44.68359375 C32.96895325 45.74471375 32.96895325 45.74471375 32.6463623 46.82727051 C31.1140718 51.8859282 31.1140718 51.8859282 30 53 C28.31391034 53.07205511 26.62499341 53.08386068 24.9375 53.0625 C24.01839844 53.05347656 23.09929687 53.04445313 22.15234375 53.03515625 C21.44207031 53.02355469 20.73179687 53.01195312 20 53 C16.56614265 42.41696422 13.60072594 31.81875797 11 21 C10.94465088 21.96413818 10.88930176 22.92827637 10.83227539 23.92163086 C10.62636372 27.48702058 10.41434216 31.05202487 10.20043945 34.61694336 C10.10859212 36.16209192 10.01841863 37.7073409 9.92993164 39.25268555 C9.80270699 41.46952174 9.66953438 43.68593115 9.53515625 45.90234375 C9.49656998 46.5971434 9.4579837 47.29194305 9.41822815 48.00779724 C9.11387171 52.88612829 9.11387171 52.88612829 8 54 C5.98035801 54.07244053 3.95832876 54.08377188 1.9375 54.0625 C0.83277344 54.05347656 -0.27195312 54.04445313 -1.41015625 54.03515625 C-2.69212891 54.01775391 -2.69212891 54.01775391 -4 54 C-3.59639104 46.95215886 -3.18685775 39.90467993 -2.77319336 32.85742188 C-2.63315403 30.45971489 -2.49447383 28.06192813 -2.35717773 25.6640625 C-2.15965866 22.21853128 -1.95726233 18.77331603 -1.75390625 15.328125 C-1.66321617 13.71855927 -1.66321617 13.71855927 -1.57069397 12.07647705 C-1.48071388 10.57537384 -1.48071388 10.57537384 -1.38891602 9.04394531 C-1.33784195 8.16458313 -1.28676788 7.28522095 -1.23414612 6.37921143 C-1 4 -1 4 0 0 Z " fill="#FFFFFF" transform="translate(332,330)"/>
<path d="M0 0 C4.95 0 9.9 0 15 0 C18.13946461 3.90190602 20.0439434 6.54373996 22.03027344 10.91894531 C23.44067224 13.94569238 25.04656319 16.85881549 26.64306641 19.79052734 C28.46402164 23.17492238 30.22606721 26.59072292 32 30 C32.33 20.1 32.66 10.2 33 0 C36.96 0 40.92 0 45 0 C45 17.82 45 35.64 45 54 C40.38 54 35.76 54 31 54 C28.75695071 49.94376203 26.51495638 45.88694347 24.27392578 41.82958984 C23.5118439 40.45019897 22.74947701 39.07096551 21.98681641 37.69189453 C20.88889297 35.70647106 19.79200507 33.72047857 18.6953125 31.734375 C18.3556546 31.12068054 18.0159967 30.50698608 17.66604614 29.87469482 C16.04760179 26.94140761 14.49888633 23.99777266 13 21 C12.67 31.89 12.34 42.78 12 54 C8.04 54 4.08 54 0 54 C0 36.18 0 18.36 0 0 Z " fill="#FFFFFF" transform="translate(576,330)"/>
<path d="M0 0 C6.0382802 4.1984917 10.66099059 10.08585043 12 17.390625 C12.93840519 27.09138868 12.39334152 36.4639638 6.421875 44.51953125 C1.81682793 49.48758878 -3.07139725 52.06522469 -9.90234375 52.82421875 C-11.24718794 52.84790195 -12.59260526 52.84873888 -13.9375 52.828125 C-14.99408813 52.81458984 -14.99408813 52.81458984 -16.07202148 52.80078125 C-22.95811947 52.57105853 -27.0275497 51.23254854 -31.95703125 46.51953125 C-38.39540415 39.58287287 -40.31489246 32.94685212 -40.15234375 23.46484375 C-39.44481293 13.83153951 -35.30606444 7.16137432 -28.1953125 0.87109375 C-20.20334176 -4.5185093 -8.4187743 -4.39509541 0 0 Z M-21 10.390625 C-26.04964845 16.94152029 -26.60839318 22.34631522 -26 30.390625 C-24.75997131 36.04431515 -21.73298071 39.32810807 -17 42.390625 C-13.0927416 43.12323595 -11.38440975 42.57906115 -7.8125 40.828125 C-3.41398024 37.01607454 -2.22417507 33.88768625 -1.71875 28.2578125 C-1.51438635 20.78150899 -2.13255106 16.04909434 -6.8125 10.078125 C-11.80015757 6.23050345 -15.98111477 7.00833278 -21 10.390625 Z " fill="#FFFFFF" transform="translate(558,331.609375)"/>
<path d="M0 0 C3.7506126 3.3041111 5.40840162 6.44515007 5.7890625 11.484375 C5.50530242 17.81440763 2.75503813 21.67725843 -1.375 26.3125 C-0.77171875 27.12203125 -0.1684375 27.9315625 0.453125 28.765625 C3.01432999 32.60969104 4.16874329 36.63955872 5.375 41.0625 C5.59542969 41.82949219 5.81585938 42.59648437 6.04296875 43.38671875 C7.625 48.97787267 7.625 48.97787267 7.625 51.3125 C3.005 51.3125 -1.615 51.3125 -6.375 51.3125 C-6.88546875 49.28996094 -6.88546875 49.28996094 -7.40625 47.2265625 C-7.89403214 45.46304247 -8.38371522 43.70004746 -8.875 41.9375 C-9.09414062 41.04804688 -9.31328125 40.15859375 -9.5390625 39.2421875 C-9.78398437 38.39140625 -10.02890625 37.540625 -10.28125 36.6640625 C-10.49072266 35.87854004 -10.70019531 35.09301758 -10.91601562 34.28369141 C-12.79611471 31.30693822 -12.79611471 31.30693822 -20.375 30.3125 C-20.375 37.2425 -20.375 44.1725 -20.375 51.3125 C-24.665 51.3125 -28.955 51.3125 -33.375 51.3125 C-33.375 33.4925 -33.375 15.6725 -33.375 -2.6875 C-10.04166667 -5.02083333 -10.04166667 -5.02083333 0 0 Z M-20.375 7.3125 C-20.44758946 9.49889453 -20.45873783 11.68750389 -20.4375 13.875 C-20.42847656 15.07253906 -20.41945312 16.27007812 -20.41015625 17.50390625 C-20.39855469 18.43074219 -20.38695312 19.35757812 -20.375 20.3125 C-14.44919345 20.8719116 -14.44919345 20.8719116 -9.3125 18.1875 C-7.10679205 15.45760324 -7.10679205 15.45760324 -7.25 12.1875 C-8.15930698 9.20019324 -8.15930698 9.20019324 -10.5625 7.4375 C-13.48617306 6.26803078 -17.82786994 4.76536994 -20.375 7.3125 Z " fill="#FFFFFF" transform="translate(163.375,332.6875)"/>
<path d="M0 0 C4.29 0 8.58 0 13 0 C13.01981934 0.96301025 13.03963867 1.92602051 13.06005859 2.91821289 C13.13657179 6.51725849 13.22521561 10.11592369 13.31738281 13.71459961 C13.35548484 15.26725716 13.39036928 16.81999733 13.421875 18.37280273 C13.46793685 20.61471947 13.52585878 22.85607645 13.5859375 25.09765625 C13.59748871 25.78336197 13.60903992 26.46906769 13.62094116 27.17555237 C13.77953845 32.44483277 14.18992481 37.85472571 17.6875 42 C21.14011307 43.49302187 23.4226815 42.97563232 27 42 C30.74860185 38.50130494 30.92392696 34.33268018 31.20532227 29.40307617 C31.24670177 28.03316489 31.28350748 26.66310993 31.31640625 25.29296875 C31.33718735 24.56757401 31.35796844 23.84217926 31.37937927 23.09480286 C31.44442215 20.79245887 31.50354773 18.49000718 31.5625 16.1875 C31.60572835 14.62043186 31.64934398 13.05337435 31.69335938 11.48632812 C31.80005668 7.65766064 31.90144969 3.8288855 32 0 C36.29 0 40.58 0 45 0 C45.07512813 4.47994839 45.12905469 8.95954625 45.16479492 13.43994141 C45.17972112 14.95856121 45.20006959 16.47713917 45.22631836 17.99560547 C45.40020964 28.32679323 45.53198364 38.72091798 40.3125 48 C34.3542539 53.1530777 29.64146708 54.36224354 21.875 54.4375 C21.19405273 54.4475708 20.51310547 54.4576416 19.81152344 54.46801758 C15.15917989 54.3882146 11.94737499 53.43402277 8 51 C0.5972967 43.26081018 -0.17594388 35.49860663 -0.09765625 25.09765625 C-0.0962413 24.3750914 -0.09482635 23.65252655 -0.09336853 22.9080658 C-0.08782225 20.62616635 -0.0752802 18.34436921 -0.0625 16.0625 C-0.05747804 14.50455872 -0.05291636 12.94661588 -0.04882812 11.38867188 C-0.0378705 7.59240919 -0.02064372 3.79622187 0 0 Z " fill="#FFFFFF" transform="translate(217,330)"/>
<path d="M0 0 C5.94 0 11.88 0 18 0 C20.28221402 7.3678791 22.56078493 14.7368709 24.8359375 22.10693359 C25.61096941 24.6157093 26.38700857 27.12417406 27.1640625 29.63232422 C28.27867264 33.23063834 29.38969481 36.83004306 30.5 40.4296875 C30.84998047 41.55680145 31.19996094 42.68391541 31.56054688 43.84518433 C31.88087891 44.88611237 32.20121094 45.92704041 32.53125 46.99951172 C32.81548828 47.91884491 33.09972656 48.8381781 33.39257812 49.78536987 C34 52 34 52 34 54 C29.38 54 24.76 54 20 54 C16 42.25 16 42.25 16 40 C11.38 40.33 6.76 40.66 2 41 C0.68 45.29 -0.64 49.58 -2 54 C-6.29 54 -10.58 54 -15 54 C-14.40010068 47.4112753 -12.8069785 41.46071436 -10.83984375 35.15625 C-10.53051407 34.14655151 -10.22118439 33.13685303 -9.90248108 32.09655762 C-8.92034299 28.89576294 -7.92907464 25.69788238 -6.9375 22.5 C-6.26697151 20.32049903 -5.59704328 18.1408133 -4.92773438 15.9609375 C-3.29209472 10.63846174 -1.64826487 5.31857886 0 0 Z M8 12 C7.32873871 14.4363189 6.66283646 16.87388883 6 19.3125 C5.80921875 20.00279297 5.6184375 20.69308594 5.421875 21.40429688 C4.62283816 24.35787949 4 26.92559219 4 30 C7.3 30 10.6 30 14 30 C12.35 24.06 10.7 18.12 9 12 C8.67 12 8.34 12 8 12 Z " fill="#FFFFFF" transform="translate(91,330)"/>
<path d="M0 0 C3.97067607 3.823614 5.12925295 7.04496133 5.4375 12.5 C5.29005101 17.42315784 4.12147032 21.28731285 1.0625 25.1875 C-4.33902331 29.64818421 -9.2295972 31.34155135 -16.1875 31.25 C-18.53875 31.2190625 -18.53875 31.2190625 -20.9375 31.1875 C-20.9375 37.4575 -20.9375 43.7275 -20.9375 50.1875 C-25.2275 50.1875 -29.5175 50.1875 -33.9375 50.1875 C-33.9375 32.3675 -33.9375 14.5475 -33.9375 -3.8125 C-7.98864286 -6.40738571 -7.98864286 -6.40738571 0 0 Z M-20.9375 6.1875 C-20.9375 11.1375 -20.9375 16.0875 -20.9375 21.1875 C-14.79869361 20.9574047 -14.79869361 20.9574047 -9.375 18.5 C-7.47211214 15.43883257 -7.34674921 13.73200475 -7.9375 10.1875 C-10.19702862 6.84339764 -11.59586221 6.26407399 -15.5625 5.375 C-18.80571309 4.91488199 -18.80571309 4.91488199 -20.9375 6.1875 Z " fill="#FFFFFF" transform="translate(303.9375,333.8125)"/>
<path d="M0 0 C0.86625 0.495 1.7325 0.99 2.625 1.5 C1.635 4.8 0.645 8.1 -0.375 11.5 C-1.15875 11.335 -1.9425 11.17 -2.75 11 C-7.26724236 10.37693209 -11.82678748 10.01736594 -16.375 10.5 C-17.035 11.16 -17.695 11.82 -18.375 12.5 C-18.31482876 14.55506902 -18.31482876 14.55506902 -17.375 16.5 C-14.12588381 18.33226415 -10.86463199 19.83321839 -7.453125 21.32421875 C-2.40937031 23.65139233 0.48572446 25.86896948 3.625 30.5 C5.19893951 34.97210696 4.84886198 38.75379338 3.5 43.25 C0.99750481 47.58765832 -1.32906835 50.63441353 -6.015625 52.6171875 C-10.04035296 53.67484857 -13.67222308 53.83080361 -17.8125 53.8125 C-18.90014648 53.83666992 -18.90014648 53.83666992 -20.00976562 53.86132812 C-25.18192026 53.86597516 -28.74793309 52.81048532 -33.375 50.5 C-32.385 46.87 -31.395 43.24 -30.375 39.5 C-29.57835937 39.72816406 -28.78171875 39.95632813 -27.9609375 40.19140625 C-26.37152344 40.62259766 -26.37152344 40.62259766 -24.75 41.0625 C-23.18378906 41.49755859 -23.18378906 41.49755859 -21.5859375 41.94140625 C-17.48248606 42.65526702 -14.12083715 42.37291857 -10.375 40.5 C-9.95719121 38.12694422 -9.95719121 38.12694422 -10.375 35.5 C-14.75005933 32.45821605 -19.71088102 30.42190107 -24.53515625 28.1953125 C-28.65816725 25.73398269 -30.86032997 23.04401008 -32.375 18.5 C-32.81707514 13.19509836 -32.61677501 9.57240162 -29.71875 5.0390625 C-22.93175912 -2.73440961 -9.09542893 -3.96755336 0 0 Z " fill="#FFFFFF" transform="translate(447.375,330.5)"/>
<path d="M0 0 C0.86625 0.495 1.7325 0.99 2.625 1.5 C1.635 4.8 0.645 8.1 -0.375 11.5 C-1.15875 11.335 -1.9425 11.17 -2.75 11 C-7.31466142 10.37039153 -11.77572601 10.41819473 -16.375 10.5 C-17.035 11.82 -17.695 13.14 -18.375 14.5 C-15.31431602 18.19739562 -10.92908918 19.74114382 -6.64453125 21.63085938 C-1.84908594 23.88482136 0.60231855 26.27828439 3.625 30.5 C5.30768168 35.54804504 5.18712419 39.82083946 3.0625 44.6875 C0.24390395 49.88176987 -3.86007514 51.66169171 -9.375 53.5 C-12.15786468 53.62298374 -14.90473388 53.68513571 -17.6875 53.6875 C-18.43451172 53.69974609 -19.18152344 53.71199219 -19.95117188 53.72460938 C-24.49022437 53.73656474 -28.09999142 53.21951855 -32.375 51.5 C-32.26101335 49.87419034 -32.13344341 48.24932843 -32 46.625 C-31.93039063 45.72007812 -31.86078125 44.81515625 -31.7890625 43.8828125 C-31.375 41.5 -31.375 41.5 -29.375 39.5 C-28.66214844 39.72816406 -27.94929688 39.95632813 -27.21484375 40.19140625 C-19.33283516 42.60260073 -19.33283516 42.60260073 -11.375 41.5 C-9.86205712 39.56402968 -9.86205712 39.56402968 -9.375 37.5 C-13.08837022 33.04395574 -16.61250572 31.46779133 -22.00390625 29.45703125 C-26.3120861 27.71814482 -28.69251999 25.5590207 -31.1875 21.6875 C-33.09739646 16.56093582 -33.00496511 12.43017269 -31 7.375 C-25.20737757 -2.96322197 -10.10291982 -4.2624895 0 0 Z " fill="#FFFFFF" transform="translate(32.375,330.5)"/>
<path d="M0 0 C-0.66 3.63 -1.32 7.26 -2 11 C-2.78375 10.835 -3.5675 10.67 -4.375 10.5 C-12.36065307 9.28977185 -12.36065307 9.28977185 -20 11 C-20 12.65 -20 14.3 -20 16 C-18.90300781 16.51949219 -17.80601562 17.03898437 -16.67578125 17.57421875 C-15.22109057 18.27810134 -13.76667807 18.98255902 -12.3125 19.6875 C-11.59126953 20.02716797 -10.87003906 20.36683594 -10.12695312 20.71679688 C-5.6457296 22.90625312 -2.27459772 25.12432889 1 29 C2.7354912 34.2064736 2.66344383 39.14934089 0.8125 44.3125 C-2.25330032 48.85834185 -5.8136439 51.35623686 -11 53 C-13.83426623 53.19006914 -16.54539731 53.27968115 -19.375 53.25 C-20.46941406 53.26160156 -20.46941406 53.26160156 -21.5859375 53.2734375 C-26.41721499 53.25618294 -30.41481766 52.52436141 -35 51 C-34.85831863 49.56208484 -34.71148957 48.1246763 -34.5625 46.6875 C-34.48128906 45.88699219 -34.40007812 45.08648437 -34.31640625 44.26171875 C-34 42 -34 42 -33 39 C-32.14277344 39.23976563 -31.28554688 39.47953125 -30.40234375 39.7265625 C-21.5807488 42.08735384 -21.5807488 42.08735384 -13 40 C-12.22757731 38.16299211 -12.22757731 38.16299211 -12 36 C-14.24555555 33.09219587 -16.90378552 32.04748382 -20.25 30.6875 C-25.61141038 28.34099413 -31.27716586 25.44566828 -34 20 C-34.57779851 15.18013646 -35.05577469 10.23621649 -32.94140625 5.7578125 C-25.14405979 -4.08924292 -11.00963544 -4.09660854 0 0 Z " fill="#FFFFFF" transform="translate(491,331)"/>
<path d="M0 0 C13.86 0 27.72 0 42 0 C42 3.63 42 7.26 42 11 C37.38 11 32.76 11 28 11 C28 25.19 28 39.38 28 54 C23.71 54 19.42 54 15 54 C15 39.81 15 25.62 15 11 C10.05 11 5.1 11 0 11 C0 7.37 0 3.74 0 0 Z " fill="#FFFFFF" transform="translate(171,330)"/>
<path d="M0 0 C13.86 0 27.72 0 42 0 C42 3.63 42 7.26 42 11 C37.05 11 32.1 11 27 11 C27 25.19 27 39.38 27 54 C22.71 54 18.42 54 14 54 C14 39.81 14 25.62 14 11 C9.38 11 4.76 11 0 11 C0 7.37 0 3.74 0 0 Z " fill="#FFFFFF" transform="translate(39,330)"/>
<path d="M0 0 C0.96550781 0.06703125 1.93101562 0.1340625 2.92578125 0.203125 C6.8373687 0.97769677 9.5568141 2.73628161 12.5 5.375 C14.35864646 9.09229291 14.3751319 12.68211446 13.6875 16.75 C11.6875 19.8125 11.6875 19.8125 9.6875 21.75 C9.97367187 22.41386719 10.25984375 23.07773437 10.5546875 23.76171875 C11.89668749 27.30182218 12.8668004 30.90229229 13.8125 34.5625 C13.99425781 35.25537109 14.17601562 35.94824219 14.36328125 36.66210938 C14.80754508 38.35732661 15.2479199 40.05356222 15.6875 41.75 C12.0575 41.75 8.4275 41.75 4.6875 41.75 C4.39617187 40.76257813 4.10484375 39.77515625 3.8046875 38.7578125 C3.39189238 37.46313689 2.97775934 36.16888733 2.5625 34.875 C2.37429688 34.22402344 2.18609375 33.57304687 1.9921875 32.90234375 C1.32817195 30.72320254 1.32817195 30.72320254 -0.3125 27.75 C-2.2925 27.09 -4.2725 26.43 -6.3125 25.75 C-6.3125 31.36 -6.3125 36.97 -6.3125 42.75 C-9.6125 42.75 -12.9125 42.75 -16.3125 42.75 C-16.3125 28.89 -16.3125 15.03 -16.3125 0.75 C-4.86365758 -0.39488424 -4.86365758 -0.39488424 0 0 Z M-5.3125 7.75 C-6.57199049 8.78406673 -6.57199049 8.78406673 -6.41015625 11.03515625 C-6.39855469 11.95167969 -6.38695312 12.86820312 -6.375 13.8125 C-6.36597656 14.73160156 -6.35695313 15.65070313 -6.34765625 16.59765625 C-6.33605469 17.30792969 -6.32445312 18.01820313 -6.3125 18.75 C-3.05954886 18.97179212 -0.88452207 19.03601103 2.0625 17.5625 C3.88353786 15.82782676 3.88353786 15.82782676 4.25 13.25 C3.91438924 10.54812832 3.91438924 10.54812832 1.4375 8.9375 C-1.4253017 7.48570932 -1.4253017 7.48570932 -5.3125 7.75 Z " fill="#FFFFFF" transform="translate(277.3125,260.25)"/>
<path d="M0 0 C3.63 0 7.26 0 11 0 C11.33 4.29 11.66 8.58 12 13 C12.49886719 12.0615625 12.99773437 11.123125 13.51171875 10.15625 C17.81858839 2.70782689 17.81858839 2.70782689 21 0 C25.53038686 -1.11992785 29.43401411 -0.82568833 34 0 C30.72243905 6.28199181 26.51363632 11.55515231 22 17 C23.26365119 20.35843856 24.70264409 23.34827915 26.6015625 26.390625 C27.09140625 27.18210937 27.58125 27.97359375 28.0859375 28.7890625 C28.59382813 29.60117187 29.10171875 30.41328125 29.625 31.25 C30.63995593 32.87900426 31.65308291 34.50915 32.6640625 36.140625 C33.11217285 36.85766602 33.5602832 37.57470703 34.02197266 38.31347656 C35 40 35 40 35 41 C30.71 41 26.42 41 22 41 C19.36 36.05 16.72 31.1 14 26 C13.34 26.33 12.68 26.66 12 27 C11.52998967 30.27555608 11.52998967 30.27555608 11.375 34.0625 C11.30023438 35.35285156 11.22546875 36.64320313 11.1484375 37.97265625 C11.09945312 38.97167969 11.05046875 39.97070312 11 41 C7.37 41 3.74 41 0 41 C0 27.47 0 13.94 0 0 Z " fill="#FFFFFF" transform="translate(127,261)"/>
<path d="M0 0 C4.62 0 9.24 0 14 0 C15.71255976 5.51647685 17.42146455 11.03406727 19.12695312 16.55273438 C19.70797353 18.43097706 20.29000142 20.30890838 20.87304688 22.18652344 C21.70966786 24.88135361 22.54269007 27.5772732 23.375 30.2734375 C23.63748535 31.11619232 23.8999707 31.95894714 24.17041016 32.82723999 C26 38.77225659 26 38.77225659 26 41 C22.37 41 18.74 41 15 41 C12 33.25 12 33.25 12 31 C8.37 31 4.74 31 1 31 C0.34 34.3 -0.32 37.6 -1 41 C-4.63 41 -8.26 41 -12 41 C-10.46336703 33.40080417 -8.30538333 26.02560921 -6.05883789 18.61352539 C-5.43178691 16.54364121 -4.81027382 14.47215102 -4.18945312 12.40039062 C-1.14386755 2.28773509 -1.14386755 2.28773509 0 0 Z M6 10 C4.515 16.435 4.515 16.435 3 23 C5.31 23 7.62 23 10 23 C9.01 18.71 8.02 14.42 7 10 C6.67 10 6.34 10 6 10 Z " fill="#FFFFFF" transform="translate(474,261)"/>
<path d="M0 0 C4.29 0 8.58 0 13 0 C15.18432325 4.88568363 16.9540951 9.74130978 18.48046875 14.8671875 C18.80704216 15.94747726 18.80704216 15.94747726 19.14021301 17.04959106 C19.59496542 18.55657812 20.04779953 20.06414528 20.4987793 21.57226562 C21.19217534 23.89063199 21.8914847 26.20715193 22.59179688 28.5234375 C23.03419489 29.99208491 23.47626425 31.46083136 23.91796875 32.9296875 C24.12729538 33.62440155 24.33662201 34.3191156 24.55229187 35.03488159 C26 39.88286918 26 39.88286918 26 41 C22.37 41 18.74 41 15 41 C12 34.375 12 34.375 12 31 C8.37 31 4.74 31 1 31 C0.690625 32.464375 0.38125 33.92875 0.0625 35.4375 C-0.875 39.875 -0.875 39.875 -2 41 C-5.33327842 41.1424478 -8.66453893 41.04222103 -12 41 C-10.68441633 33.11808905 -8.46413623 25.57176576 -6.05883789 17.96533203 C-5.43030431 15.97723957 -4.80929985 13.98690992 -4.18945312 11.99609375 C-1.15359933 2.30719866 -1.15359933 2.30719866 0 0 Z M6 10 C5.49487756 11.60256108 4.99608373 13.20711792 4.5 14.8125 C4.2215625 15.70582031 3.943125 16.59914063 3.65625 17.51953125 C2.87211649 20.05573395 2.87211649 20.05573395 3 23 C5.31 23 7.62 23 10 23 C9.01 18.71 8.02 14.42 7 10 C6.67 10 6.34 10 6 10 Z " fill="#FFFFFF" transform="translate(339,261)"/>
<path d="M0 0 C8.58 0 17.16 0 26 0 C26 2.64 26 5.28 26 8 C20.72 8 15.44 8 10 8 C10 10.64 10 13.28 10 16 C14.95 16 19.9 16 25 16 C25 18.64 25 21.28 25 24 C20.05 24 15.1 24 10 24 C10 26.97 10 29.94 10 33 C15.61 33 21.22 33 27 33 C27 35.64 27 38.28 27 41 C18.09 41 9.18 41 0 41 C0 27.47 0 13.94 0 0 Z " fill="#FFFFFF" transform="translate(197,261)"/>
<path d="M0 0 C4.29 0 8.58 0 13 0 C13 17.82 13 35.64 13 54 C8.71 54 4.42 54 0 54 C0 36.18 0 18.36 0 0 Z " fill="#FFFFFF" transform="translate(499,330)"/>
<path d="M0 0 C4.29 0 8.58 0 13 0 C13 17.82 13 35.64 13 54 C8.71 54 4.42 54 0 54 C0 36.18 0 18.36 0 0 Z " fill="#FFFFFF" transform="translate(395,330)"/>
<path d="M0 0 C3.63 0 7.26 0 11 0 C11 10.89 11 21.78 11 33 C16.28 33 21.56 33 27 33 C27 35.64 27 38.28 27 41 C18.09 41 9.18 41 0 41 C0 27.47 0 13.94 0 0 Z " fill="#FFFFFF" transform="translate(401,261)"/>
<path d="M0 0 C5.05058472 3.02845212 8.51683914 6.47388628 10.890625 11.93359375 C12.45177213 18.43837346 11.99731879 24.25210239 8.640625 30.05859375 C4.68339221 34.48483191 0.37817501 37.64331042 -5.609375 38.30859375 C-11.72714322 38.60702147 -16.33904766 37.64952234 -21.359375 34.05859375 C-26.97384064 28.14862991 -27.87312209 23.33767101 -27.73828125 15.328125 C-27.18927641 10.59083582 -25.61706545 7.50292271 -22.359375 4.05859375 C-15.87012691 -1.00301976 -7.94297662 -3.16930027 0 0 Z M-20.96875 7.79296875 C-23.92700088 11.94781548 -25.15675438 15.71187142 -24.84765625 20.81640625 C-23.74471861 25.8810959 -20.98798145 29.65618264 -17.109375 32.99609375 C-11.62013918 35.11693486 -6.63283927 35.99142395 -1.109375 33.55859375 C2.9496443 31.16377236 5.87408274 28.48716052 7.640625 24.05859375 C8.51389049 18.7417207 8.32806758 14.51279921 6.015625 9.62109375 C1.55042627 4.80337933 -2.49842128 2.33671192 -9.0546875 1.90625 C-14.0034501 2.2333716 -17.61515259 4.17889775 -20.96875 7.79296875 Z " fill="#FFFFFF" transform="translate(658.359375,328.94140625)"/>
<path d="M0 0 C9.9609375 -0.1953125 9.9609375 -0.1953125 13 0 C15 2 15 2 15.25 5.5 C15 9 15 9 13 11 C13.66 11.94875 14.32 12.8975 15 13.875 C17 17 17 17 17 19 C14.75 18.875 14.75 18.875 12 18 C10.63823419 16.01924973 9.30406884 14.01920337 8 12 C5.87880872 11.04768403 5.87880872 11.04768403 4 11 C4 13.64 4 16.28 4 19 C2.68 19 1.36 19 0 19 C0 12.73 0 6.46 0 0 Z M3 3 C3 4.65 3 6.3 3 8 C6.41642759 8.25015873 6.41642759 8.25015873 10 8 C10.66 7.01 11.32 6.02 12 5 C11.67 4.34 11.34 3.68 11 3 C8.36 3 5.72 3 3 3 Z " fill="#FFFFFF" transform="translate(643,339)"/>
</svg>
